<?xml version="1.0" encoding="us-ascii" standalone="no"?><svg xmlns="http://www.w3.org/2000/svg" xmlns:xlink="http://www.w3.org/1999/xlink" contentStyleType="text/css" height="1050px" preserveAspectRatio="none" style="width:1176px;height:1050px;background:#F9F9F9;" version="1.1" viewBox="0 0 1176 1050" width="1176px" zoomAndPan="magnify"><defs/><g><rect fill="#F9F9F9" height="1050" style="stroke:none;stroke-width:2.0;" width="1176" x="0" y="0"/><ellipse cx="812" cy="40" fill="#222222" rx="20" ry="20" style="stroke:#222222;stroke-width:2.0;"/><rect fill="none" height="256.082" rx="7" ry="7" style="stroke:#393939;stroke-width:2.0;" width="1132" x="22" y="80"/><path d="M380,80 L380,98.9766 L360,118.9766 L22,118.9766 " fill="none" style="stroke:#393939;stroke-width:2.0;"/><text fill="#393939" font-family="sans-serif" font-size="28" lengthAdjust="spacing" textLength="338" x="28" y="109.0703">LoggingInterceptor.class</text><path d="M42,138.9766 L42,312.082 L450,312.082 L450,158.9766 L430,138.9766 L42,138.9766 " fill="#E5E5E5" style="stroke:#191919;stroke-width:3.0;"/><path d="M430,138.9766 L430,158.9766 L450,158.9766 L430,138.9766 " fill="#E5E5E5" style="stroke:#191919;stroke-width:3.0;"/><text fill="#191919" font-family="sans-serif" font-size="26" lengthAdjust="spacing" textLength="184" x="54" y="174.1133">MDC contains:</text><text fill="#191919" font-family="sans-serif" font-size="26" lengthAdjust="spacing" textLength="8" x="54" y="204.7344">{</text><text fill="#191919" font-family="sans-serif" font-size="26" lengthAdjust="spacing" textLength="366" x="54" y="235.3555">"REQUEST_METHOD": "POST",</text><text fill="#191919" font-family="sans-serif" font-size="26" lengthAdjust="spacing" textLength="228" x="54" y="265.9766">"TRACE_ID":"uuid"</text><text fill="#191919" font-family="sans-serif" font-size="26" lengthAdjust="spacing" textLength="8" x="54" y="296.5977">}</text><rect fill="#F1F1F1" height="96.5313" rx="7" ry="7" style="stroke:#181818;stroke-width:1.0;" width="644" x="490" y="177.2637"/><text fill="#000000" font-family="sans-serif" font-size="24" lengthAdjust="spacing" textLength="604" x="510" y="220.4668">MDC.put("REQUEST_METHOD", request.getMethod())</text><text fill="#000000" font-family="sans-serif" font-size="24" lengthAdjust="spacing" textLength="598" x="510" y="248.7324">MDC.put("TRACE_ID", UUID.randomUUID().toString())</text><rect fill="none" height="286.7031" rx="7" ry="7" style="stroke:#393939;stroke-width:2.0;" width="984" x="96" y="356.082"/><path d="M398,356.082 L398,375.0586 L378,395.0586 L96,395.0586 " fill="none" style="stroke:#393939;stroke-width:2.0;"/><text fill="#393939" font-family="sans-serif" font-size="28" lengthAdjust="spacing" textLength="282" x="102" y="385.1523">PartyController.class</text><path d="M116,415.0586 L116,618.7852 L524,618.7852 L524,435.0586 L504,415.0586 L116,415.0586 " fill="#E5E5E5" style="stroke:#191919;stroke-width:3.0;"/><path d="M504,415.0586 L504,435.0586 L524,435.0586 L504,415.0586 " fill="#E5E5E5" style="stroke:#191919;stroke-width:3.0;"/><text fill="#191919" font-family="sans-serif" font-size="26" lengthAdjust="spacing" textLength="184" x="128" y="450.1953">MDC contains:</text><text fill="#191919" font-family="sans-serif" font-size="26" lengthAdjust="spacing" textLength="8" x="128" y="480.8164">{</text><text fill="#191919" font-family="sans-serif" font-size="26" lengthAdjust="spacing" textLength="366" x="128" y="511.4375">"REQUEST_METHOD": "POST",</text><text fill="#191919" font-family="sans-serif" font-size="26" lengthAdjust="spacing" textLength="228" x="128" y="542.0586">"TRACE_ID":"uuid"</text><text fill="#191919" font-family="sans-serif" font-size="26" lengthAdjust="spacing" textLength="242" x="128" y="572.6797">"PARTY_ID": "1234"</text><text fill="#191919" font-family="sans-serif" font-size="26" lengthAdjust="spacing" textLength="8" x="128" y="603.3008">}</text><rect fill="#F1F1F1" height="68.2656" rx="7" ry="7" style="stroke:#181818;stroke-width:1.0;" width="496" x="564" y="482.7891"/><text fill="#000000" font-family="sans-serif" font-size="24" lengthAdjust="spacing" textLength="456" x="584" y="525.9922">MDC.put("PARTY_ID", String.valueOf(id))</text><rect fill="none" height="286.7031" rx="7" ry="7" style="stroke:#393939;stroke-width:2.0;" width="1010" x="83" y="662.7852"/><path d="M397,662.7852 L397,681.7617 L377,701.7617 L83,701.7617 " fill="none" style="stroke:#393939;stroke-width:2.0;"/><text fill="#393939" font-family="sans-serif" font-size="28" lengthAdjust="spacing" textLength="294" x="89" y="691.8555">DatetimeFormat.class</text><path d="M103,721.7617 L103,925.4883 L511,925.4883 L511,741.7617 L491,721.7617 L103,721.7617 " fill="#E5E5E5" style="stroke:#191919;stroke-width:3.0;"/><path d="M491,721.7617 L491,741.7617 L511,741.7617 L491,721.7617 " fill="#E5E5E5" style="stroke:#191919;stroke-width:3.0;"/><text fill="#191919" font-family="sans-serif" font-size="26" lengthAdjust="spacing" textLength="184" x="115" y="756.8984">MDC contains:</text><text fill="#191919" font-family="sans-serif" font-size="26" lengthAdjust="spacing" textLength="8" x="115" y="787.5195">{</text><text fill="#191919" font-family="sans-serif" font-size="26" lengthAdjust="spacing" textLength="366" x="115" y="818.1406">"REQUEST_METHOD": "POST",</text><text fill="#191919" font-family="sans-serif" font-size="26" lengthAdjust="spacing" textLength="228" x="115" y="848.7617">"TRACE_ID":"uuid"</text><text fill="#191919" font-family="sans-serif" font-size="26" lengthAdjust="spacing" textLength="242" x="115" y="879.3828">"PARTY_ID": "1234"</text><text fill="#191919" font-family="sans-serif" font-size="26" lengthAdjust="spacing" textLength="8" x="115" y="910.0039">}</text><rect fill="#F1F1F1" height="68.2656" rx="7" ry="7" style="stroke:#181818;stroke-width:1.0;" width="522" x="551" y="789.4922"/><text fill="#000000" font-family="sans-serif" font-size="24" lengthAdjust="spacing" textLength="482" x="571" y="832.6953">logger.warn("Could not parse timestamp")</text><ellipse cx="812" cy="1009.4883" fill="none" rx="20" ry="20" style="stroke:#222222;stroke-width:3.0;"/><line style="stroke:#222222;stroke-width:5.0;" x1="799.6256" x2="824.3744" y1="997.1139" y2="1021.8626"/><line style="stroke:#222222;stroke-width:5.0;" x1="824.3744" x2="799.6256" y1="997.1139" y2="1021.8626"/><line style="stroke:#191919;stroke-width:2.0;" x1="812" x2="812" y1="60" y2="177.2637"/><polygon fill="#191919" points="804,157.2637,812,177.2637,820,157.2637,812,165.2637" style="stroke:#191919;stroke-width:2.0;"/><line style="stroke:#191919;stroke-width:2.0;" x1="812" x2="812" y1="273.7949" y2="482.7891"/><polygon fill="#191919" points="804,462.7891,812,482.7891,820,462.7891,812,470.7891" style="stroke:#191919;stroke-width:2.0;"/><line style="stroke:#191919;stroke-width:2.0;" x1="812" x2="812" y1="551.0547" y2="789.4922"/><polygon fill="#191919" points="804,769.4922,812,789.4922,820,769.4922,812,777.4922" style="stroke:#191919;stroke-width:2.0;"/><line style="stroke:#191919;stroke-width:2.0;" x1="812" x2="812" y1="857.7578" y2="989.4883"/><polygon fill="#191919" points="804,969.4883,812,989.4883,820,969.4883,812,977.4883" style="stroke:#191919;stroke-width:2.0;"/><!--SRC=[nP51IyD048Nl-olMFILG0bPFyLIIY0L3OfeUX41PacaQsEp6tLb5nF_kn4eBqgFWRPQTD-zxl2iym0XybDOnrqe5VCaSIekijyPF_D7q_Q3xjKQmBKneRDGgwHpZFCxJ99ey1gBAdhRPfjxbMVrGf6B1BRnuS1ZrW3dWmNH169BY9AYhLPBjrlFgThjE8ojrPyPv3C88pGOjUPBcZf5ghun4UdDj4EBv26-DHZbe5pVwez6__MCkoc9JYmLzdPnYuVtGYKP_Cj0T_qx7VaAMbFSzePlMA0MN4fQhgdu-0X_XebUfF1JxOEXcp3-dF3lItlNovlOoUIeHS1ZXtjXHuXbSKMqKv4rQ7OZ4UDNDN7oYce7F0kfudCH_aDFq1G00]--></g></svg>