<svg xmlns="http://www.w3.org/2000/svg" xmlns:xlink="http://www.w3.org/1999/xlink" contentStyleType="text/css" data-diagram-type="SEQUENCE" height="1010px" preserveAspectRatio="none" style="width:1134px;height:1010px;background:#FFFFFF;" version="1.1" viewBox="0 0 1134 1010" width="1134px" zoomAndPan="magnify"><title>Analytics with Goatcounter</title><defs/><g><text fill="#000000" font-family="Verdana" font-size="44" font-weight="bold" lengthAdjust="spacing" textLength="670.5059" x="229.6294" y="74.2363">Analytics with Goatcounter</text><rect fill="#FDF5E6" height="816.4463" style="stroke:#000000;stroke-width:2;" width="262.1992" x="598.459" y="107.4746"/><text fill="#000000" font-family="Verdana" font-size="26" font-weight="bold" lengthAdjust="spacing" textLength="58.957" x="700.0801" y="133.6143">GCP</text><rect fill="#F5FFFA" height="816.4463" style="stroke:#000000;stroke-width:2;" width="190.3398" x="919.4248" y="107.4746"/><text fill="#000000" font-family="Verdana" font-size="26" font-weight="bold" lengthAdjust="spacing" textLength="140.7783" x="944.2056" y="133.6143">Supabase</text><g><title>Browser</title><rect fill="#000000" fill-opacity="0.00000" height="488.7891" width="16" x="75.1348" y="273.1025"/><line style="stroke:#000000;stroke-width:2;" x1="82" x2="82" y1="273.1025" y2="761.8916"/></g><g><title>Github Pages</title><rect fill="#000000" fill-opacity="0.00000" height="488.7891" width="16" x="441.6748" y="273.1025"/><line style="stroke:#000000;stroke-width:2;" x1="448.8906" x2="448.8906" y1="273.1025" y2="761.8916"/></g><g><title>GoatCounter</title><rect fill="#000000" fill-opacity="0.00000" height="488.7891" width="16" x="721.5586" y="273.1025"/><line style="stroke:#000000;stroke-width:2;" x1="728.459" x2="728.459" y1="273.1025" y2="761.8916"/></g><g><title>PosgtreSQL</title><rect fill="#000000" fill-opacity="0.00000" height="488.7891" width="16" x="1006.5947" y="273.1025"/><line style="stroke:#000000;stroke-width:2;" x1="1013.4248" x2="1013.4248" y1="273.1025" y2="761.8916"/></g><g class="participant participant-head" data-participant="user"><text fill="#000000" font-family="Verdana" font-size="28" lengthAdjust="spacing" textLength="114.2695" x="20" y="267.2236">Browser</text><ellipse cx="83.1348" cy="135.0732" fill="#FFFFFF" rx="16" ry="16" style="stroke:#000000;stroke-width:2;"/><path d="M83.1348,151.0732 L83.1348,205.0732 M57.1348,167.0732 L109.1348,167.0732 M83.1348,205.0732 L57.1348,235.0732 M83.1348,205.0732 L109.1348,235.0732" fill="none" style="stroke:#000000;stroke-width:2;"/></g><g class="participant participant-tail" data-participant="user"><text fill="#000000" font-family="Verdana" font-size="28" lengthAdjust="spacing" textLength="114.2695" x="20" y="788.042">Browser</text><ellipse cx="83.1348" cy="811.9209" fill="#FFFFFF" rx="16" ry="16" style="stroke:#000000;stroke-width:2;"/><path d="M83.1348,827.9209 L83.1348,881.9209 M57.1348,843.9209 L109.1348,843.9209 M83.1348,881.9209 L57.1348,911.9209 M83.1348,881.9209 L109.1348,911.9209" fill="none" style="stroke:#000000;stroke-width:2;"/></g><g class="participant participant-head" data-participant="mme"><rect fill="#FFFFFF" height="62.0293" rx="5" ry="5" style="stroke:#000000;stroke-width:2;" width="213.5684" x="342.8906" y="209.0732"/><text fill="#000000" font-family="Verdana" font-size="28" lengthAdjust="spacing" textLength="185.5684" x="356.8906" y="251.2236">Github Pages</text></g><g class="participant participant-tail" data-participant="mme"><rect fill="#FFFFFF" height="62.0293" rx="5" ry="5" style="stroke:#000000;stroke-width:2;" width="213.5684" x="342.8906" y="759.8916"/><text fill="#000000" font-family="Verdana" font-size="28" lengthAdjust="spacing" textLength="185.5684" x="356.8906" y="802.042">Github Pages</text></g><g class="participant participant-head" data-participant="gc"><rect fill="#FFFFFF" height="62.0293" rx="5" ry="5" style="stroke:#000000;stroke-width:2;" width="206.1992" x="626.459" y="209.0732"/><text fill="#000000" font-family="Verdana" font-size="28" lengthAdjust="spacing" textLength="178.1992" x="640.459" y="251.2236">GoatCounter</text></g><g class="participant participant-tail" data-participant="gc"><rect fill="#FFFFFF" height="62.0293" rx="5" ry="5" style="stroke:#000000;stroke-width:2;" width="206.1992" x="626.459" y="759.8916"/><text fill="#000000" font-family="Verdana" font-size="28" lengthAdjust="spacing" textLength="178.1992" x="640.459" y="802.042">GoatCounter</text></g><g class="participant participant-head" data-participant="pg"><text fill="#000000" font-family="Verdana" font-size="28" lengthAdjust="spacing" textLength="162.3398" x="927.4248" y="267.2236">PosgtreSQL</text><path d="M978.5947,167.0732 C978.5947,147.0732 1014.5947,147.0732 1014.5947,147.0732 C1014.5947,147.0732 1050.5947,147.0732 1050.5947,167.0732 L1050.5947,219.0732 C1050.5947,239.0732 1014.5947,239.0732 1014.5947,239.0732 C1014.5947,239.0732 978.5947,239.0732 978.5947,219.0732 L978.5947,167.0732" fill="#FFFFFF" style="stroke:#000000;stroke-width:3;"/><path d="M978.5947,167.0732 C978.5947,187.0732 1014.5947,187.0732 1014.5947,187.0732 C1014.5947,187.0732 1050.5947,187.0732 1050.5947,167.0732" fill="none" style="stroke:#000000;stroke-width:3;"/></g><g class="participant participant-tail" data-participant="pg"><text fill="#000000" font-family="Verdana" font-size="28" lengthAdjust="spacing" textLength="162.3398" x="927.4248" y="788.042">PosgtreSQL</text><path d="M978.5947,813.9209 C978.5947,793.9209 1014.5947,793.9209 1014.5947,793.9209 C1014.5947,793.9209 1050.5947,793.9209 1050.5947,813.9209 L1050.5947,865.9209 C1050.5947,885.9209 1014.5947,885.9209 1014.5947,885.9209 C1014.5947,885.9209 978.5947,885.9209 978.5947,865.9209 L978.5947,813.9209" fill="#FFFFFF" style="stroke:#000000;stroke-width:3;"/><path d="M978.5947,813.9209 C978.5947,833.9209 1014.5947,833.9209 1014.5947,833.9209 C1014.5947,833.9209 1050.5947,833.9209 1050.5947,813.9209" fill="none" style="stroke:#000000;stroke-width:3;"/></g><g class="message" data-participant-1="user" data-participant-2="mme"><polygon fill="#000000" points="105.1348,328.7012,85.1348,336.7012,105.1348,344.7012,97.1348,336.7012" style="stroke:#000000;stroke-width:2;"/><polygon fill="#000000" points="425.6748,328.7012,445.6748,336.7012,425.6748,344.7012,433.6748,336.7012" style="stroke:#000000;stroke-width:2;"/><line style="stroke:#000000;stroke-width:2;" x1="93.1348" x2="437.6748" y1="336.7012" y2="336.7012"/><text fill="#000000" font-family="Verdana" font-size="26" font-weight="bold" lengthAdjust="spacing" textLength="18.4844" x="117.1348" y="327.2422">1</text><text fill="#000000" font-family="Verdana" font-size="26" lengthAdjust="spacing" textLength="217.1533" x="143.6191" y="327.2422">GET mourjo.me/</text><text fill="#000000" font-family="Verdana" font-size="26" font-weight="bold" lengthAdjust="spacing" textLength="63.0957" x="360.7725" y="327.2422">blog</text><text fill="#000000" font-family="Verdana" font-size="26" lengthAdjust="spacing" textLength="11.8066" x="423.8682" y="327.2422">/</text></g><g class="message" data-participant-1="user" data-participant-2="gc"><polygon fill="#000000" points="105.1348,388.2998,85.1348,396.2998,105.1348,404.2998,97.1348,396.2998" style="stroke:#000000;stroke-width:2;"/><polygon fill="#000000" points="705.5586,388.2998,725.5586,396.2998,705.5586,404.2998,713.5586,396.2998" style="stroke:#000000;stroke-width:2;"/><line style="stroke:#000000;stroke-width:2;" x1="93.1348" x2="717.5586" y1="396.2998" y2="396.2998"/><text fill="#000000" font-family="Verdana" font-size="26" font-weight="bold" lengthAdjust="spacing" textLength="18.4844" x="117.1348" y="386.8408">2</text><text fill="#000000" font-family="Verdana" font-size="26" lengthAdjust="spacing" textLength="52.6221" x="143.6191" y="386.8408">GET</text><text fill="#000000" font-family="Verdana" font-size="26" font-weight="bold" lengthAdjust="spacing" textLength="71.9063" x="205.3818" y="386.8408">stats</text><text fill="#000000" font-family="Verdana" font-size="26" lengthAdjust="spacing" textLength="164.8486" x="277.2881" y="386.8408">.mourjo.me/</text><text fill="#000000" font-family="Verdana" font-size="26" font-weight="bold" lengthAdjust="spacing" textLength="117.3301" x="442.1367" y="386.8408">count.js</text></g><g class="message" data-participant-1="user" data-participant-2="gc"><polygon fill="#000000" points="105.1348,447.8984,85.1348,455.8984,105.1348,463.8984,97.1348,455.8984" style="stroke:#000000;stroke-width:2;"/><polygon fill="#000000" points="705.5586,447.8984,725.5586,455.8984,705.5586,463.8984,713.5586,455.8984" style="stroke:#000000;stroke-width:2;"/><line style="stroke:#000000;stroke-width:2;" x1="93.1348" x2="717.5586" y1="455.8984" y2="455.8984"/><text fill="#000000" font-family="Verdana" font-size="26" font-weight="bold" lengthAdjust="spacing" textLength="18.4844" x="117.1348" y="446.4395">3</text><text fill="#000000" font-family="Verdana" font-size="26" lengthAdjust="spacing" textLength="69.9385" x="143.6191" y="446.4395">POST</text><text fill="#000000" font-family="Verdana" font-size="26" font-weight="bold" lengthAdjust="spacing" textLength="71.9063" x="222.6982" y="446.4395">stats</text><text fill="#000000" font-family="Verdana" font-size="26" lengthAdjust="spacing" textLength="164.8486" x="294.6045" y="446.4395">.mourjo.me/</text><text fill="#000000" font-family="Verdana" font-size="26" font-weight="bold" lengthAdjust="spacing" textLength="82.0371" x="459.4531" y="446.4395">count</text></g><g class="message" data-participant-1="gc" data-participant-2="pg"><polygon fill="#000000" points="751.5586,507.4971,731.5586,515.4971,751.5586,523.4971,743.5586,515.4971" style="stroke:#000000;stroke-width:2;"/><polygon fill="#000000" points="990.5947,507.4971,1010.5947,515.4971,990.5947,523.4971,998.5947,515.4971" style="stroke:#000000;stroke-width:2;"/><line style="stroke:#000000;stroke-width:2;" x1="739.5586" x2="1002.5947" y1="515.4971" y2="515.4971"/><text fill="#000000" font-family="Verdana" font-size="26" font-weight="bold" lengthAdjust="spacing" textLength="18.4844" x="763.5586" y="506.0381">4</text><text fill="#000000" font-family="Verdana" font-size="26" lengthAdjust="spacing" textLength="210.5518" x="790.043" y="506.0381">Persist analytics</text></g><g class="message" data-participant-1="user" data-participant-2="gc"><polygon fill="#000000" points="705.5586,598.6943,725.5586,606.6943,705.5586,614.6943,713.5586,606.6943" style="stroke:#000000;stroke-width:2;"/><line style="stroke:#000000;stroke-width:2;" x1="83.1348" x2="717.5586" y1="606.6943" y2="606.6943"/><text fill="#000000" font-family="Verdana" font-size="26" font-weight="bold" lengthAdjust="spacing" textLength="18.4844" x="97.1348" y="581.436">5</text><text fill="#000000" font-family="Verdana" font-size="26" lengthAdjust="spacing" textLength="52.6221" x="123.6191" y="565.6367">GET</text><text fill="#000000" font-family="Verdana" font-size="26" font-weight="bold" lengthAdjust="spacing" textLength="71.9063" x="185.3818" y="565.6367">stats</text><text fill="#000000" font-family="Verdana" font-size="26" lengthAdjust="spacing" textLength="153.042" x="257.2881" y="565.6367">.mourjo.me</text><text fill="#000000" font-family="Verdana" font-size="26" lengthAdjust="spacing" textLength="282.0645" x="123.6191" y="597.2354">(authenticated users)</text></g><g class="message" data-participant-1="gc" data-participant-2="pg"><polygon fill="#000000" points="751.5586,658.293,731.5586,666.293,751.5586,674.293,743.5586,666.293" style="stroke:#000000;stroke-width:2;"/><polygon fill="#000000" points="990.5947,658.293,1010.5947,666.293,990.5947,674.293,998.5947,666.293" style="stroke:#000000;stroke-width:2;"/><line style="stroke:#000000;stroke-width:2;" x1="739.5586" x2="1002.5947" y1="666.293" y2="666.293"/><text fill="#000000" font-family="Verdana" font-size="26" font-weight="bold" lengthAdjust="spacing" textLength="18.4844" x="763.5586" y="656.834">6</text><text fill="#000000" font-family="Verdana" font-size="26" lengthAdjust="spacing" textLength="202.7061" x="790.043" y="656.834">Query analytics</text></g><g class="message" data-participant-1="gc" data-participant-2="user"><polygon fill="#000000" points="105.1348,717.8916,85.1348,725.8916,105.1348,733.8916,97.1348,725.8916" style="stroke:#000000;stroke-width:2;"/><line style="stroke:#000000;stroke-width:2;" x1="93.1348" x2="727.5586" y1="725.8916" y2="725.8916"/><text fill="#000000" font-family="Verdana" font-size="26" font-weight="bold" lengthAdjust="spacing" textLength="18.4844" x="117.1348" y="716.4326">7</text><text fill="#000000" font-family="Verdana" font-size="26" lengthAdjust="spacing" textLength="160.8623" x="143.6191" y="716.4326">Goatcounter</text><text fill="#000000" font-family="Verdana" font-size="26" font-weight="bold" lengthAdjust="spacing" textLength="153.9941" x="313.6221" y="716.4326">dashboard</text></g><text fill="#000000" font-family="Verdana" font-size="20" lengthAdjust="spacing" textLength="7.0313" x="870.3066" y="956.0283">&#160;</text><text fill="#000000" font-family="Verdana" font-size="20" font-style="italic" lengthAdjust="spacing" textLength="471.8848" x="637.8799" y="980.335">Generated on 22 March 2025 at 06:47 AM CET</text><!--SRC=[VLBVRzCm47xtNt44eMsHQ2aIBrLLYHOe3vtMqKeJqbukyU5uI-nWNpGAwl_E9Mct5gRvAVxklX- -ooikg2AeIxHEgKdaRKbJ5UbdGowdJnPDm0h-A00JV5DtNm1BwsXJsFpUKOmmUiJcllG1llajbhEoeKTytSh2w5q7rAYrTGO-zDSAWx7kS9jXVhyG9wTxhKr05siCv5ZgkqEEhuIQmZxD5- -uT-YVyPpE_vcUmrkb7hyfBF-R_pJ-w2H-TzkfdPeCzpDKAkOehFSA6_QkgJ8AYYqBb7nqM6xPvX4UB1UmyCYvP6KAYSASnR-9yZoCaCo2VuWjBaCGXgtHCLIoihQu47QJmGeDnKGSC_zBmFagWTTNfLvYJYSqa_SiiPiVxCXf4DgUksvgp32I25nQcKKWh9H6xa2eJSTV-MWuqFfwUKJl0a_UJjjiOrXyta3bct3d1nKDqpGhlKdJuLENoVkcD8sC7DDqSDpU3MDm9_0fOtMrVf4Y_VB6jhisqaqXsiY0XsdlKxviV-lEPM65_70sHoRThI9U70jVDnIsHx9IaahRDpxUfQXhZ4NcCMX9fe8r1SCFxzlQhPlOwO8SXSx4EtWZSwRpH6kub0FVvPm1CfmLnRYg015-9nUJePt-1G00]--></g></svg>