<?xml version="1.0" encoding="us-ascii" standalone="no"?><svg xmlns="http://www.w3.org/2000/svg" xmlns:xlink="http://www.w3.org/1999/xlink" contentStyleType="text/css" height="668px" preserveAspectRatio="none" style="width:819px;height:668px;background:#FFFFFF;" version="1.1" viewBox="0 0 819 668" width="819px" zoomAndPan="magnify"><defs/><g><text fill="#000000" font-family="sans-serif" font-size="14" font-weight="bold" lengthAdjust="spacing" textLength="363" x="224" y="28.5352">Authentication Flow with Cognito (OAuth + PKCE)</text><line style="stroke:#181818;stroke-width:0.5;stroke-dasharray:5.0,5.0;" x1="39" x2="39" y1="73.9766" y2="633.2559"/><line style="stroke:#181818;stroke-width:0.5;stroke-dasharray:5.0,5.0;" x1="235.5" x2="235.5" y1="73.9766" y2="633.2559"/><line style="stroke:#181818;stroke-width:0.5;stroke-dasharray:5.0,5.0;" x1="413" x2="413" y1="73.9766" y2="633.2559"/><line style="stroke:#181818;stroke-width:0.5;stroke-dasharray:5.0,5.0;" x1="676" x2="676" y1="73.9766" y2="633.2559"/><rect fill="#E2E2F0" height="30.4883" rx="2.5" ry="2.5" style="stroke:#181818;stroke-width:0.5;" width="69" x="5" y="42.4883"/><text fill="#000000" font-family="sans-serif" font-size="14" lengthAdjust="spacing" textLength="55" x="12" y="63.0234">Browser</text><rect fill="#E2E2F0" height="30.4883" rx="2.5" ry="2.5" style="stroke:#181818;stroke-width:0.5;" width="69" x="5" y="632.2559"/><text fill="#000000" font-family="sans-serif" font-size="14" lengthAdjust="spacing" textLength="55" x="12" y="652.791">Browser</text><rect fill="#E2E2F0" height="30.4883" rx="2.5" ry="2.5" style="stroke:#181818;stroke-width:0.5;" width="184" x="143.5" y="42.4883"/><text fill="#000000" font-family="sans-serif" font-size="14" lengthAdjust="spacing" textLength="170" x="150.5" y="63.0234">ListLinksHandler Lambda</text><rect fill="#E2E2F0" height="30.4883" rx="2.5" ry="2.5" style="stroke:#181818;stroke-width:0.5;" width="184" x="143.5" y="632.2559"/><text fill="#000000" font-family="sans-serif" font-size="14" lengthAdjust="spacing" textLength="170" x="150.5" y="652.791">ListLinksHandler Lambda</text><rect fill="#E2E2F0" height="30.4883" rx="2.5" ry="2.5" style="stroke:#181818;stroke-width:0.5;" width="69" x="379" y="42.4883"/><text fill="#000000" font-family="sans-serif" font-size="14" lengthAdjust="spacing" textLength="55" x="386" y="63.0234">Cognito</text><rect fill="#E2E2F0" height="30.4883" rx="2.5" ry="2.5" style="stroke:#181818;stroke-width:0.5;" width="69" x="379" y="632.2559"/><text fill="#000000" font-family="sans-serif" font-size="14" lengthAdjust="spacing" textLength="55" x="386" y="652.791">Cognito</text><rect fill="#E2E2F0" height="30.4883" rx="2.5" ry="2.5" style="stroke:#181818;stroke-width:0.5;" width="261" x="546" y="42.4883"/><text fill="#000000" font-family="sans-serif" font-size="14" lengthAdjust="spacing" textLength="247" x="553" y="63.0234">AuthCodeToCookieHandler Lambda</text><rect fill="#E2E2F0" height="30.4883" rx="2.5" ry="2.5" style="stroke:#181818;stroke-width:0.5;" width="261" x="546" y="632.2559"/><text fill="#000000" font-family="sans-serif" font-size="14" lengthAdjust="spacing" textLength="247" x="553" y="652.791">AuthCodeToCookieHandler Lambda</text><rect fill="#EEEEEE" height="3" style="stroke:#EEEEEE;stroke-width:1.0;" width="812" x="0" y="104.6318"/><line style="stroke:#000000;stroke-width:1.0;" x1="0" x2="812" y1="104.6318" y2="104.6318"/><line style="stroke:#000000;stroke-width:1.0;" x1="0" x2="812" y1="107.6318" y2="107.6318"/><rect fill="#EEEEEE" height="23.3105" style="stroke:#000000;stroke-width:2.0;" width="166" x="323" y="93.9766"/><text fill="#000000" font-family="sans-serif" font-size="13" font-weight="bold" lengthAdjust="spacing" textLength="148" x="329" y="110.5449">Unauthenticated User</text><polygon fill="#181818" points="223.5,144.5977,233.5,148.5977,223.5,152.5977,227.5,148.5977" style="stroke:#181818;stroke-width:1.0;"/><line style="stroke:#181818;stroke-width:1.0;" x1="39.5" x2="229.5" y1="148.5977" y2="148.5977"/><text fill="#778899" font-family="sans-serif" font-size="13" lengthAdjust="spacing" textLength="16" x="46.5" y="143.8555">[1]</text><text fill="#000000" font-family="sans-serif" font-size="13" font-weight="bold" lengthAdjust="spacing" textLength="27" x="66.5" y="143.8555">GET</text><text fill="#000000" font-family="sans-serif" font-size="13" lengthAdjust="spacing" textLength="38" x="97.5" y="143.8555">/links</text><polygon fill="#181818" points="50.5,173.9082,40.5,177.9082,50.5,181.9082,46.5,177.9082" style="stroke:#181818;stroke-width:1.0;"/><line style="stroke:#181818;stroke-width:1.0;" x1="44.5" x2="234.5" y1="177.9082" y2="177.9082"/><text fill="#778899" font-family="sans-serif" font-size="13" lengthAdjust="spacing" textLength="16" x="56.5" y="173.166">[2]</text><text fill="#B22222" font-family="sans-serif" font-size="13" font-weight="bold" lengthAdjust="spacing" textLength="27" x="76.5" y="173.166">401</text><text fill="#B22222" font-family="sans-serif" font-size="13" lengthAdjust="spacing" textLength="84" x="107.5" y="173.166">Unauthorized</text><rect fill="#EEEEEE" height="3" style="stroke:#EEEEEE;stroke-width:1.0;" width="812" x="0" y="206.5635"/><line style="stroke:#000000;stroke-width:1.0;" x1="0" x2="812" y1="206.5635" y2="206.5635"/><line style="stroke:#000000;stroke-width:1.0;" x1="0" x2="812" y1="209.5635" y2="209.5635"/><rect fill="#EEEEEE" height="23.3105" style="stroke:#000000;stroke-width:2.0;" width="138" x="337" y="195.9082"/><text fill="#000000" font-family="sans-serif" font-size="13" font-weight="bold" lengthAdjust="spacing" textLength="120" x="343" y="212.4766">OAuth Login Flow</text><line style="stroke:#181818;stroke-width:1.0;" x1="39.5" x2="81.5" y1="265.8398" y2="265.8398"/><line style="stroke:#181818;stroke-width:1.0;" x1="81.5" x2="81.5" y1="265.8398" y2="278.8398"/><line style="stroke:#181818;stroke-width:1.0;" x1="40.5" x2="81.5" y1="278.8398" y2="278.8398"/><polygon fill="#181818" points="50.5,274.8398,40.5,278.8398,50.5,282.8398,46.5,278.8398" style="stroke:#181818;stroke-width:1.0;"/><text fill="#778899" font-family="sans-serif" font-size="13" lengthAdjust="spacing" textLength="16" x="46.5" y="253.4424">[3]</text><text fill="#000000" font-family="sans-serif" font-size="13" lengthAdjust="spacing" textLength="126" x="66.5" y="245.7871">Generate PKCE Code</text><text fill="#000000" font-family="sans-serif" font-size="13" lengthAdjust="spacing" textLength="151" x="66.5" y="261.0977">and Challenge (SHA256)</text><polygon fill="#181818" points="401.5,304.1504,411.5,308.1504,401.5,312.1504,405.5,308.1504" style="stroke:#181818;stroke-width:1.0;"/><line style="stroke:#181818;stroke-width:1.0;" x1="39.5" x2="407.5" y1="308.1504" y2="308.1504"/><text fill="#778899" font-family="sans-serif" font-size="13" lengthAdjust="spacing" textLength="16" x="46.5" y="303.4082">[4]</text><text fill="#000000" font-family="sans-serif" font-size="13" font-weight="bold" lengthAdjust="spacing" textLength="27" x="66.5" y="303.4082">GET</text><text fill="#000000" font-family="sans-serif" font-size="13" lengthAdjust="spacing" textLength="299" x="97.5" y="303.4082">/oauth2/authorize (Client ID + PKCE Challenge)</text><polygon fill="#181818" points="50.5,333.4609,40.5,337.4609,50.5,341.4609,46.5,337.4609" style="stroke:#181818;stroke-width:1.0;"/><line style="stroke:#181818;stroke-width:1.0;" x1="44.5" x2="412.5" y1="337.4609" y2="337.4609"/><text fill="#778899" font-family="sans-serif" font-size="13" lengthAdjust="spacing" textLength="16" x="56.5" y="332.7188">[5]</text><text fill="#228B22" font-family="sans-serif" font-size="13" font-weight="bold" lengthAdjust="spacing" textLength="27" x="76.5" y="332.7188">200</text><text fill="#228B22" font-family="sans-serif" font-size="13" lengthAdjust="spacing" textLength="52" x="107.5" y="332.7188">Login UI</text><polygon fill="#181818" points="401.5,362.7715,411.5,366.7715,401.5,370.7715,405.5,366.7715" style="stroke:#181818;stroke-width:1.0;"/><line style="stroke:#181818;stroke-width:1.0;" x1="39.5" x2="407.5" y1="366.7715" y2="366.7715"/><text fill="#778899" font-family="sans-serif" font-size="13" lengthAdjust="spacing" textLength="16" x="46.5" y="362.0293">[6]</text><text fill="#000000" font-family="sans-serif" font-size="13" font-weight="bold" lengthAdjust="spacing" textLength="35" x="66.5" y="362.0293">POST</text><text fill="#000000" font-family="sans-serif" font-size="13" lengthAdjust="spacing" textLength="152" x="105.5" y="362.0293">Username and Password</text><polygon fill="#181818" points="50.5,392.082,40.5,396.082,50.5,400.082,46.5,396.082" style="stroke:#181818;stroke-width:1.0;"/><line style="stroke:#181818;stroke-width:1.0;" x1="44.5" x2="412.5" y1="396.082" y2="396.082"/><text fill="#778899" font-family="sans-serif" font-size="13" lengthAdjust="spacing" textLength="16" x="56.5" y="391.3398">[7]</text><text fill="#228B22" font-family="sans-serif" font-size="13" font-weight="bold" lengthAdjust="spacing" textLength="27" x="76.5" y="391.3398">302</text><text fill="#228B22" font-family="sans-serif" font-size="13" lengthAdjust="spacing" textLength="280" x="107.5" y="391.3398">Redirect with Single-use Authorization Code</text><polygon fill="#181818" points="664.5,421.3926,674.5,425.3926,664.5,429.3926,668.5,425.3926" style="stroke:#181818;stroke-width:1.0;"/><line style="stroke:#181818;stroke-width:1.0;" x1="39.5" x2="670.5" y1="425.3926" y2="425.3926"/><text fill="#778899" font-family="sans-serif" font-size="13" lengthAdjust="spacing" textLength="16" x="46.5" y="420.6504">[8]</text><text fill="#000000" font-family="sans-serif" font-size="13" font-weight="bold" lengthAdjust="spacing" textLength="35" x="66.5" y="420.6504">POST</text><text fill="#000000" font-family="sans-serif" font-size="13" lengthAdjust="spacing" textLength="207" x="105.5" y="420.6504">Authorization Code + PKCE Code</text><polygon fill="#181818" points="424.5,450.7031,414.5,454.7031,424.5,458.7031,420.5,454.7031" style="stroke:#181818;stroke-width:1.0;"/><line style="stroke:#181818;stroke-width:1.0;" x1="418.5" x2="675.5" y1="454.7031" y2="454.7031"/><text fill="#778899" font-family="sans-serif" font-size="13" lengthAdjust="spacing" textLength="16" x="430.5" y="449.9609">[9]</text><text fill="#000000" font-family="sans-serif" font-size="13" font-weight="bold" lengthAdjust="spacing" textLength="35" x="450.5" y="449.9609">POST</text><text fill="#000000" font-family="sans-serif" font-size="13" lengthAdjust="spacing" textLength="94" x="489.5" y="449.9609">/oauth2/token</text><polygon fill="#181818" points="664.5,480.0137,674.5,484.0137,664.5,488.0137,668.5,484.0137" style="stroke:#181818;stroke-width:1.0;"/><line style="stroke:#181818;stroke-width:1.0;" x1="413.5" x2="670.5" y1="484.0137" y2="484.0137"/><text fill="#778899" font-family="sans-serif" font-size="13" lengthAdjust="spacing" textLength="24" x="420.5" y="479.2715">[10]</text><text fill="#228B22" font-family="sans-serif" font-size="13" font-weight="bold" lengthAdjust="spacing" textLength="27" x="448.5" y="479.2715">200</text><text fill="#228B22" font-family="sans-serif" font-size="13" lengthAdjust="spacing" textLength="180" x="479.5" y="479.2715">Multi-use JWT Access Token</text><polygon fill="#181818" points="50.5,509.3242,40.5,513.3242,50.5,517.3242,46.5,513.3242" style="stroke:#181818;stroke-width:1.0;"/><line style="stroke:#181818;stroke-width:1.0;" x1="44.5" x2="675.5" y1="513.3242" y2="513.3242"/><text fill="#778899" font-family="sans-serif" font-size="13" lengthAdjust="spacing" textLength="24" x="56.5" y="508.582">[11]</text><text fill="#228B22" font-family="sans-serif" font-size="13" font-weight="bold" lengthAdjust="spacing" textLength="27" x="84.5" y="508.582">200</text><text fill="#228B22" font-family="sans-serif" font-size="13" lengthAdjust="spacing" textLength="249" x="115.5" y="508.582">JWT Access Token as Http-Only Cookie</text><rect fill="#EEEEEE" height="3" style="stroke:#EEEEEE;stroke-width:1.0;" width="812" x="0" y="541.9795"/><line style="stroke:#000000;stroke-width:1.0;" x1="0" x2="812" y1="541.9795" y2="541.9795"/><line style="stroke:#000000;stroke-width:1.0;" x1="0" x2="812" y1="544.9795" y2="544.9795"/><rect fill="#EEEEEE" height="23.3105" style="stroke:#000000;stroke-width:2.0;" width="149" x="331.5" y="531.3242"/><text fill="#000000" font-family="sans-serif" font-size="13" font-weight="bold" lengthAdjust="spacing" textLength="131" x="337.5" y="547.8926">Authenticated User</text><polygon fill="#181818" points="223.5,581.9453,233.5,585.9453,223.5,589.9453,227.5,585.9453" style="stroke:#181818;stroke-width:1.0;"/><line style="stroke:#181818;stroke-width:1.0;" x1="39.5" x2="229.5" y1="585.9453" y2="585.9453"/><text fill="#778899" font-family="sans-serif" font-size="13" lengthAdjust="spacing" textLength="24" x="46.5" y="581.2031">[12]</text><text fill="#000000" font-family="sans-serif" font-size="13" font-weight="bold" lengthAdjust="spacing" textLength="27" x="74.5" y="581.2031">GET</text><text fill="#000000" font-family="sans-serif" font-size="13" lengthAdjust="spacing" textLength="38" x="105.5" y="581.2031">/links</text><polygon fill="#181818" points="50.5,611.2559,40.5,615.2559,50.5,619.2559,46.5,615.2559" style="stroke:#181818;stroke-width:1.0;"/><line style="stroke:#181818;stroke-width:1.0;" x1="44.5" x2="234.5" y1="615.2559" y2="615.2559"/><text fill="#778899" font-family="sans-serif" font-size="13" lengthAdjust="spacing" textLength="24" x="56.5" y="610.5137">[13]</text><text fill="#228B22" font-family="sans-serif" font-size="13" font-weight="bold" lengthAdjust="spacing" textLength="27" x="84.5" y="610.5137">200</text><text fill="#228B22" font-family="sans-serif" font-size="13" lengthAdjust="spacing" textLength="113" x="115.5" y="610.5137">User's Short Links</text><!--SRC=[nPD1Jzj048Nl_XKZNve8HN53wG75beo1172Lg4xKGzl3nfuwgsnsgzsn8lZrxDh6D2afSEhDMi- - -TwRMU8a4FoueZLAuZaZhYHS2xM37QSr9AgKd1JqPgu4Jc1-brprVOzLf6IrNQ46V_nBIO9S2QN3b9ThoWGZd6YyZxu7FttF2qDOIlRS0WjO6dip33tlGgkT-nv4uAVSKChbnaoPB8GzJDbsLJ3_7CQhQ7Ar60zN4Go5g_2E5ZkbLjJU-mFjcckyq3pVH5RjK_2nLckubEOFMDIWZSzKbRoDuG2oavwWH6szr8dOd0hy8Iq996ic1CeIePTDuz7Pv_wUnpRG0q_AKOo67Glq4i5jMd1psMR-hDltEf7ZNfL6GtO4A9tRKH3KVHfRovlZHFDPrY2v0KcsHN2UvioOdTB5-pkV1gDQxYiMDlwScgtAk2m53Yg34BUMcyLpCUx1kT_kSA4IfJOSNzgCZlblhIuyf_kQs3_IU1eGgGtA_HJUWFZwOBvKWdYTn-st1SHvZiR0ecds1khtxC1X0s06faI_1pCfxg5fKR-4-By_s9SDE98F1Z8xQe9Qy140]--></g></svg>