<?xml version="1.0" encoding="us-ascii" standalone="no"?><svg xmlns="http://www.w3.org/2000/svg" xmlns:xlink="http://www.w3.org/1999/xlink" contentStyleType="text/css" height="422px" preserveAspectRatio="none" style="width:417px;height:422px;background:#FFFFFF;" version="1.1" viewBox="0 0 417 422" width="417px" zoomAndPan="magnify"><defs/><g><text fill="#000000" font-family="sans-serif" font-size="14" font-weight="bold" lengthAdjust="spacing" textLength="156" x="129.75" y="28.5352">High level Interaction</text><line style="stroke:#181818;stroke-width:0.5;stroke-dasharray:5.0,5.0;" x1="48" x2="48" y1="73.9766" y2="387.082"/><line style="stroke:#181818;stroke-width:0.5;stroke-dasharray:5.0,5.0;" x1="124" x2="124" y1="73.9766" y2="387.082"/><line style="stroke:#181818;stroke-width:0.5;stroke-dasharray:5.0,5.0;" x1="383.5" x2="383.5" y1="73.9766" y2="387.082"/><rect fill="#E2E2F0" height="30.4883" rx="2.5" ry="2.5" style="stroke:#181818;stroke-width:0.5;" width="86" x="5" y="42.4883"/><text fill="#000000" font-family="sans-serif" font-size="14" lengthAdjust="spacing" textLength="72" x="12" y="63.0234">Anon User</text><rect fill="#E2E2F0" height="30.4883" rx="2.5" ry="2.5" style="stroke:#181818;stroke-width:0.5;" width="86" x="5" y="386.082"/><text fill="#000000" font-family="sans-serif" font-size="14" lengthAdjust="spacing" textLength="72" x="12" y="406.6172">Anon User</text><rect fill="#E2E2F0" height="30.4883" rx="2.5" ry="2.5" style="stroke:#181818;stroke-width:0.5;" width="47" x="101" y="42.4883"/><text fill="#000000" font-family="sans-serif" font-size="14" lengthAdjust="spacing" textLength="33" x="108" y="63.0234">Alice</text><rect fill="#E2E2F0" height="30.4883" rx="2.5" ry="2.5" style="stroke:#181818;stroke-width:0.5;" width="47" x="101" y="386.082"/><text fill="#000000" font-family="sans-serif" font-size="14" lengthAdjust="spacing" textLength="33" x="108" y="406.6172">Alice</text><rect fill="#E2E2F0" height="30.4883" rx="2.5" ry="2.5" style="stroke:#181818;stroke-width:0.5;" width="56" x="355.5" y="42.4883"/><text fill="#000000" font-family="sans-serif" font-size="14" lengthAdjust="spacing" textLength="42" x="362.5" y="63.0234">Liliput</text><rect fill="#E2E2F0" height="30.4883" rx="2.5" ry="2.5" style="stroke:#181818;stroke-width:0.5;" width="56" x="355.5" y="386.082"/><text fill="#000000" font-family="sans-serif" font-size="14" lengthAdjust="spacing" textLength="42" x="362.5" y="406.6172">Liliput</text><polygon fill="#181818" points="371.5,101.2871,381.5,105.2871,371.5,109.2871,375.5,105.2871" style="stroke:#181818;stroke-width:1.0;"/><line style="stroke:#181818;stroke-width:1.0;" x1="124.5" x2="377.5" y1="105.2871" y2="105.2871"/><text fill="#778899" font-family="sans-serif" font-size="13" lengthAdjust="spacing" textLength="16" x="131.5" y="100.5449">[1]</text><text fill="#000000" font-family="sans-serif" font-size="13" lengthAdjust="spacing" textLength="71" x="151.5" y="100.5449">Home page</text><polygon fill="#181818" points="135.5,130.5977,125.5,134.5977,135.5,138.5977,131.5,134.5977" style="stroke:#181818;stroke-width:1.0;"/><line style="stroke:#181818;stroke-width:1.0;" x1="129.5" x2="382.5" y1="134.5977" y2="134.5977"/><text fill="#778899" font-family="sans-serif" font-size="13" lengthAdjust="spacing" textLength="16" x="141.5" y="129.8555">[2]</text><text fill="#000000" font-family="sans-serif" font-size="13" lengthAdjust="spacing" textLength="124" x="161.5" y="129.8555">Redirect to Login UI</text><polygon fill="#181818" points="371.5,159.9082,381.5,163.9082,371.5,167.9082,375.5,163.9082" style="stroke:#181818;stroke-width:1.0;"/><line style="stroke:#181818;stroke-width:1.0;" x1="124.5" x2="377.5" y1="163.9082" y2="163.9082"/><text fill="#778899" font-family="sans-serif" font-size="13" lengthAdjust="spacing" textLength="16" x="131.5" y="159.166">[3]</text><text fill="#000000" font-family="sans-serif" font-size="13" lengthAdjust="spacing" textLength="114" x="151.5" y="159.166">Login with Google</text><polygon fill="#181818" points="135.5,189.2188,125.5,193.2188,135.5,197.2188,131.5,193.2188" style="stroke:#181818;stroke-width:1.0;"/><line style="stroke:#181818;stroke-width:1.0;" x1="129.5" x2="382.5" y1="193.2188" y2="193.2188"/><text fill="#778899" font-family="sans-serif" font-size="13" lengthAdjust="spacing" textLength="16" x="141.5" y="188.4766">[4]</text><text fill="#000000" font-family="sans-serif" font-size="13" lengthAdjust="spacing" textLength="112" x="161.5" y="188.4766">Redirect to Liliput</text><polygon fill="#181818" points="371.5,218.5293,381.5,222.5293,371.5,226.5293,375.5,222.5293" style="stroke:#181818;stroke-width:1.0;"/><line style="stroke:#181818;stroke-width:1.0;" x1="124.5" x2="377.5" y1="222.5293" y2="222.5293"/><text fill="#778899" font-family="sans-serif" font-size="13" lengthAdjust="spacing" textLength="16" x="131.5" y="217.7871">[5]</text><text fill="#000000" font-family="sans-serif" font-size="13" lengthAdjust="spacing" textLength="71" x="151.5" y="217.7871">Home page</text><polygon fill="#181818" points="135.5,247.8398,125.5,251.8398,135.5,255.8398,131.5,251.8398" style="stroke:#181818;stroke-width:1.0;"/><line style="stroke:#181818;stroke-width:1.0;" x1="129.5" x2="382.5" y1="251.8398" y2="251.8398"/><text fill="#778899" font-family="sans-serif" font-size="13" lengthAdjust="spacing" textLength="16" x="141.5" y="247.0977">[6]</text><text fill="#000000" font-family="sans-serif" font-size="13" lengthAdjust="spacing" textLength="215" x="161.5" y="247.0977">UI with previously shortened links</text><polygon fill="#181818" points="371.5,277.1504,381.5,281.1504,371.5,285.1504,375.5,281.1504" style="stroke:#181818;stroke-width:1.0;"/><line style="stroke:#181818;stroke-width:1.0;" x1="124.5" x2="377.5" y1="281.1504" y2="281.1504"/><text fill="#778899" font-family="sans-serif" font-size="13" lengthAdjust="spacing" textLength="16" x="131.5" y="276.4082">[7]</text><text fill="#000000" font-family="sans-serif" font-size="13" lengthAdjust="spacing" textLength="130" x="151.5" y="276.4082">Create new shortlink</text><polygon fill="#181818" points="135.5,306.4609,125.5,310.4609,135.5,314.4609,131.5,310.4609" style="stroke:#181818;stroke-width:1.0;"/><line style="stroke:#181818;stroke-width:1.0;" x1="129.5" x2="382.5" y1="310.4609" y2="310.4609"/><text fill="#778899" font-family="sans-serif" font-size="13" lengthAdjust="spacing" textLength="16" x="141.5" y="305.7188">[8]</text><text fill="#000000" font-family="sans-serif" font-size="13" lengthAdjust="spacing" textLength="92" x="161.5" y="305.7188">New short link</text><polygon fill="#181818" points="371.5,335.7715,381.5,339.7715,371.5,343.7715,375.5,339.7715" style="stroke:#181818;stroke-width:1.0;"/><line style="stroke:#181818;stroke-width:1.0;" x1="48" x2="377.5" y1="339.7715" y2="339.7715"/><text fill="#778899" font-family="sans-serif" font-size="13" lengthAdjust="spacing" textLength="16" x="55" y="335.0293">[9]</text><text fill="#000000" font-family="sans-serif" font-size="13" lengthAdjust="spacing" textLength="107" x="75" y="335.0293">Expand shortlink</text><polygon fill="#181818" points="59,365.082,49,369.082,59,373.082,55,369.082" style="stroke:#181818;stroke-width:1.0;"/><line style="stroke:#181818;stroke-width:1.0;" x1="53" x2="382.5" y1="369.082" y2="369.082"/><text fill="#778899" font-family="sans-serif" font-size="13" lengthAdjust="spacing" textLength="24" x="65" y="364.3398">[10]</text><text fill="#000000" font-family="sans-serif" font-size="13" lengthAdjust="spacing" textLength="148" x="93" y="364.3398">Redirect to original link</text><!--SRC=[ZP31IiD048Rl-nJ3tWkUYnQAI1i88fQUnCEQZCdGwKwOJ5hxzcwxYgdcu6bX_c-_dVsDZ17ycfeM60_8K4H33PMHHE_2O1A7_Hig-DjtYGQLiEXTcNZRS31SAPuMBpUltZdt5DIeeYuapY-ZHDZsgFvglcIgqBdB0RC5bCJK3JQ7jUmHkj2W-ngTqupDuHbhKgmCJA2KXfAvc73aw4ZMmagauR-kNwgS_fZ-kSwso8zqYWUIeUSJzAseOSGQcEAkdrZkNZ7r1H6F6JvpK_B7R-1YSgCYHxh4FNoaGkjfr_ZIzPT5ANKKECi_0G00]--></g></svg>