<svg xmlns="http://www.w3.org/2000/svg" xmlns:xlink="http://www.w3.org/1999/xlink" contentStyleType="text/css" data-diagram-type="SEQUENCE" height="962px" preserveAspectRatio="none" style="width:1296px;height:962px;background:#FFFFFF;" version="1.1" viewBox="0 0 1296 962" width="1296px" zoomAndPan="magnify"><defs/><g><rect fill="#FDF5E6" height="938.0449" style="stroke:#000000;stroke-width:2;" width="464.4941" x="22" y="12"/><text fill="#000000" font-family="Verdana" font-size="26" font-weight="bold" lengthAdjust="spacing" textLength="108.6084" x="199.9429" y="38.1396">Team X</text><rect fill="#F5FFFA" height="938.0449" style="stroke:#000000;stroke-width:2;" width="384.7891" x="888.374" y="12"/><text fill="#000000" font-family="Verdana" font-size="26" font-weight="bold" lengthAdjust="spacing" textLength="107.9102" x="1026.8135" y="38.1396">Team Y</text><rect fill="none" height="393.1904" style="stroke:#4169E1;stroke-width:2;stroke-dasharray:10.0,10.0;" width="1013.6826" x="271.4805" y="301.2266"/><g><title>Customer</title><rect fill="#000000" fill-opacity="0.00000" height="580.3877" width="16" x="95.874" y="207.6279"/><line style="stroke:#000000;stroke-width:2;" x1="102" x2="102" y1="207.6279" y2="788.0156"/></g><g><title>Mobile</title><rect fill="#000000" fill-opacity="0.00000" height="580.3877" width="16" x="376.9873" y="207.6279"/><line style="stroke:#000000;stroke-width:2;" x1="383.4805" x2="383.4805" y1="207.6279" y2="788.0156"/></g><g><title>Service Mesh</title><rect fill="#000000" fill-opacity="0.00000" height="580.3877" width="16" x="683.9355" y="207.6279"/><line style="stroke:#000000;stroke-width:2;" x1="691.0762" x2="691.0762" y1="207.6279" y2="788.0156"/></g><g><title>Inventory</title><rect fill="#000000" fill-opacity="0.00000" height="580.3877" width="16" x="990.8838" y="207.6279"/><line style="stroke:#000000;stroke-width:2;" x1="998.374" x2="998.374" y1="207.6279" y2="788.0156"/></g><g><title>Database</title><rect fill="#000000" fill-opacity="0.00000" height="580.3877" width="16" x="1185.2783" y="207.6279"/><line style="stroke:#000000;stroke-width:2;" x1="1191.3936" x2="1191.3936" y1="207.6279" y2="788.0156"/></g><g class="participant participant-head" data-participant="User"><text fill="#000000" font-family="Verdana" font-size="28" lengthAdjust="spacing" textLength="135.748" x="30" y="201.749">Customer</text><ellipse cx="103.874" cy="69.5986" fill="#FFFFFF" rx="16" ry="16" style="stroke:#000000;stroke-width:2;"/><path d="M103.874,85.5986 L103.874,139.5986 M77.874,101.5986 L129.874,101.5986 M103.874,139.5986 L77.874,169.5986 M103.874,139.5986 L129.874,169.5986" fill="none" style="stroke:#000000;stroke-width:2;"/></g><g class="participant participant-tail" data-participant="User"><text fill="#000000" font-family="Verdana" font-size="28" lengthAdjust="spacing" textLength="135.748" x="30" y="814.166">Customer</text><ellipse cx="103.874" cy="838.0449" fill="#FFFFFF" rx="16" ry="16" style="stroke:#000000;stroke-width:2;"/><path d="M103.874,854.0449 L103.874,908.0449 M77.874,870.0449 L129.874,870.0449 M103.874,908.0449 L77.874,938.0449 M103.874,908.0449 L129.874,938.0449" fill="none" style="stroke:#000000;stroke-width:2;"/></g><g class="participant participant-head" data-participant="ServiceX"><rect fill="#FFFFFF" height="96.0586" rx="5" ry="5" style="stroke:#000000;stroke-width:2;" width="147.0137" x="311.4805" y="109.5693"/><text fill="#000000" font-family="Verdana" font-size="28" lengthAdjust="spacing" textLength="90.084" x="339.9453" y="151.7197">Mobile</text><text fill="#000000" font-family="Verdana" font-size="28" lengthAdjust="spacing" textLength="119.0137" x="325.4805" y="185.749">Backend</text></g><g class="participant participant-tail" data-participant="ServiceX"><rect fill="#FFFFFF" height="96.0586" rx="5" ry="5" style="stroke:#000000;stroke-width:2;" width="147.0137" x="311.4805" y="786.0156"/><text fill="#000000" font-family="Verdana" font-size="28" lengthAdjust="spacing" textLength="90.084" x="339.9453" y="828.166">Mobile</text><text fill="#000000" font-family="Verdana" font-size="28" lengthAdjust="spacing" textLength="119.0137" x="325.4805" y="862.1953">Backend</text></g><g class="participant participant-head" data-participant="Mesh"><rect fill="#FFFFFF" height="62.0293" rx="5" ry="5" style="stroke:#000000;stroke-width:2;" width="213.7188" x="585.0762" y="143.5986"/><text fill="#000000" font-family="Verdana" font-size="28" lengthAdjust="spacing" textLength="185.7188" x="599.0762" y="185.749">Service Mesh</text></g><g class="participant participant-tail" data-participant="Mesh"><rect fill="#FFFFFF" height="62.0293" rx="5" ry="5" style="stroke:#000000;stroke-width:2;" width="213.7188" x="585.0762" y="786.0156"/><text fill="#000000" font-family="Verdana" font-size="28" lengthAdjust="spacing" textLength="185.7188" x="599.0762" y="828.166">Service Mesh</text></g><g class="participant participant-head" data-participant="ServiceY"><rect fill="#FFFFFF" height="96.0586" rx="5" ry="5" style="stroke:#000000;stroke-width:2;" width="165.0195" x="916.374" y="109.5693"/><text fill="#000000" font-family="Verdana" font-size="28" lengthAdjust="spacing" textLength="137.0195" x="930.374" y="151.7197">Inventory</text><text fill="#000000" font-family="Verdana" font-size="28" lengthAdjust="spacing" textLength="103.291" x="947.2383" y="185.749">Service</text></g><g class="participant participant-tail" data-participant="ServiceY"><rect fill="#FFFFFF" height="96.0586" rx="5" ry="5" style="stroke:#000000;stroke-width:2;" width="165.0195" x="916.374" y="786.0156"/><text fill="#000000" font-family="Verdana" font-size="28" lengthAdjust="spacing" textLength="137.0195" x="930.374" y="828.166">Inventory</text><text fill="#000000" font-family="Verdana" font-size="28" lengthAdjust="spacing" textLength="103.291" x="947.2383" y="862.1953">Service</text></g><g class="participant participant-head" data-participant="DB"><text fill="#000000" font-family="Verdana" font-size="28" lengthAdjust="spacing" textLength="131.7695" x="1121.3936" y="201.749">Database</text><path d="M1157.2783,101.5986 C1157.2783,81.5986 1193.2783,81.5986 1193.2783,81.5986 C1193.2783,81.5986 1229.2783,81.5986 1229.2783,101.5986 L1229.2783,153.5986 C1229.2783,173.5986 1193.2783,173.5986 1193.2783,173.5986 C1193.2783,173.5986 1157.2783,173.5986 1157.2783,153.5986 L1157.2783,101.5986" fill="#FFFFFF" style="stroke:#000000;stroke-width:3;"/><path d="M1157.2783,101.5986 C1157.2783,121.5986 1193.2783,121.5986 1193.2783,121.5986 C1193.2783,121.5986 1229.2783,121.5986 1229.2783,101.5986" fill="none" style="stroke:#000000;stroke-width:3;"/></g><g class="participant participant-tail" data-participant="DB"><text fill="#000000" font-family="Verdana" font-size="28" lengthAdjust="spacing" textLength="131.7695" x="1121.3936" y="814.166">Database</text><path d="M1157.2783,840.0449 C1157.2783,820.0449 1193.2783,820.0449 1193.2783,820.0449 C1193.2783,820.0449 1229.2783,820.0449 1229.2783,840.0449 L1229.2783,892.0449 C1229.2783,912.0449 1193.2783,912.0449 1193.2783,912.0449 C1193.2783,912.0449 1157.2783,912.0449 1157.2783,892.0449 L1157.2783,840.0449" fill="#FFFFFF" style="stroke:#000000;stroke-width:3;"/><path d="M1157.2783,840.0449 C1157.2783,860.0449 1193.2783,860.0449 1193.2783,860.0449 C1193.2783,860.0449 1229.2783,860.0449 1229.2783,840.0449" fill="none" style="stroke:#000000;stroke-width:3;"/></g><g class="message" data-participant-1="User" data-participant-2="ServiceX"><polygon fill="#000000" points="360.9873,263.2266,380.9873,271.2266,360.9873,279.2266,368.9873,271.2266" style="stroke:#000000;stroke-width:2;"/><line style="stroke:#000000;stroke-width:2;" x1="103.874" x2="372.9873" y1="271.2266" y2="271.2266"/><text fill="#000000" font-family="Verdana" font-size="26" font-weight="bold" lengthAdjust="spacing" textLength="18.4844" x="117.874" y="261.7676">1</text><text fill="#000000" font-family="Verdana" font-size="26" lengthAdjust="spacing" textLength="206.6289" x="144.3584" y="261.7676">List all products</text></g><path d="M271.4805,301.2266 L584.0039,301.2266 L584.0039,316.8252 L564.0039,336.8252 L271.4805,336.8252 L271.4805,301.2266" fill="#4169E1" style="stroke:#4169E1;stroke-width:2;"/><rect fill="none" height="393.1904" style="stroke:#4169E1;stroke-width:2;stroke-dasharray:10.0,10.0;" width="1013.6826" x="271.4805" y="301.2266"/><text fill="#FFFFFF" font-family="Verdana" font-size="26" lengthAdjust="spacing" textLength="222.5234" x="301.4805" y="329.3662">Latency Increase</text><g class="message" data-participant-1="ServiceX" data-participant-2="Mesh"><polygon fill="#000000" points="667.9355,372.4238,687.9355,380.4238,667.9355,388.4238,675.9355,380.4238" style="stroke:#000000;stroke-width:2;"/><line style="stroke:#000000;stroke-width:2;" x1="384.9873" x2="679.9355" y1="380.4238" y2="380.4238"/><text fill="#000000" font-family="Verdana" font-size="26" font-weight="bold" lengthAdjust="spacing" textLength="18.4844" x="398.9873" y="370.9648">2</text><text fill="#000000" font-family="Verdana" font-size="26" font-weight="bold" lengthAdjust="spacing" textLength="56.5703" x="425.4717" y="370.9648">GET</text><text fill="#000000" font-family="Verdana" font-size="26" lengthAdjust="spacing" textLength="105.9424" x="491.1826" y="370.9648">/catalog</text></g><g class="message" data-participant-1="Mesh" data-participant-2="ServiceY"><polygon fill="#000000" points="974.8838,432.0225,994.8838,440.0225,974.8838,448.0225,982.8838,440.0225" style="stroke:#000000;stroke-width:2;"/><line style="stroke:#000000;stroke-width:2;" x1="691.9355" x2="986.8838" y1="440.0225" y2="440.0225"/><text fill="#000000" font-family="Verdana" font-size="26" font-weight="bold" lengthAdjust="spacing" textLength="18.4844" x="705.9355" y="430.5635">3</text><text fill="#000000" font-family="Verdana" font-size="26" font-weight="bold" lengthAdjust="spacing" textLength="56.5703" x="732.4199" y="430.5635">GET</text><text fill="#000000" font-family="Verdana" font-size="26" lengthAdjust="spacing" textLength="105.9424" x="798.1309" y="430.5635">/catalog</text></g><g class="message" data-participant-1="ServiceY" data-participant-2="DB"><polygon fill="#000000" points="1169.2783,491.6211,1189.2783,499.6211,1169.2783,507.6211,1177.2783,499.6211" style="stroke:#000000;stroke-width:2;"/><line style="stroke:#000000;stroke-width:2;" x1="998.8838" x2="1181.2783" y1="499.6211" y2="499.6211"/><text fill="#000000" font-family="Verdana" font-size="26" font-weight="bold" lengthAdjust="spacing" textLength="18.4844" x="1012.8838" y="490.1621">4</text><text fill="#000000" font-family="Verdana" font-size="26" lengthAdjust="spacing" textLength="78.8887" x="1039.3682" y="490.1621">Query</text></g><g class="message" data-participant-1="DB" data-participant-2="ServiceY"><polygon fill="#000000" points="1020.8838,551.2197,1000.8838,559.2197,1020.8838,567.2197,1012.8838,559.2197" style="stroke:#000000;stroke-width:2;"/><line style="stroke:#000000;stroke-width:2;" x1="1008.8838" x2="1191.2783" y1="559.2197" y2="559.2197"/><text fill="#000000" font-family="Verdana" font-size="26" font-weight="bold" lengthAdjust="spacing" textLength="18.4844" x="1032.8838" y="549.7607">5</text><text fill="#000000" font-family="Verdana" font-size="26" lengthAdjust="spacing" textLength="94.4912" x="1059.3682" y="549.7607">Results</text></g><g class="message" data-participant-1="ServiceY" data-participant-2="Mesh"><polygon fill="#000000" points="713.9355,610.8184,693.9355,618.8184,713.9355,626.8184,705.9355,618.8184" style="stroke:#000000;stroke-width:2;"/><line style="stroke:#000000;stroke-width:2;" x1="701.9355" x2="996.8838" y1="618.8184" y2="618.8184"/><text fill="#000000" font-family="Verdana" font-size="26" font-weight="bold" lengthAdjust="spacing" textLength="18.4844" x="725.9355" y="609.3594">6</text><text fill="#000000" font-family="Verdana" font-size="26" lengthAdjust="spacing" textLength="232.4639" x="752.4199" y="609.3594">Catalog Response</text></g><g class="message" data-participant-1="Mesh" data-participant-2="ServiceX"><polygon fill="#000000" points="406.9873,670.417,386.9873,678.417,406.9873,686.417,398.9873,678.417" style="stroke:#000000;stroke-width:2;"/><line style="stroke:#000000;stroke-width:2;" x1="394.9873" x2="689.9355" y1="678.417" y2="678.417"/><text fill="#000000" font-family="Verdana" font-size="26" font-weight="bold" lengthAdjust="spacing" textLength="18.4844" x="418.9873" y="668.958">7</text><text fill="#000000" font-family="Verdana" font-size="26" lengthAdjust="spacing" textLength="232.4639" x="445.4717" y="668.958">Catalog Response</text></g><g class="message" data-participant-1="ServiceX" data-participant-2="User"><polygon fill="#000000" points="125.874,744.0156,105.874,752.0156,125.874,760.0156,117.874,752.0156" style="stroke:#000000;stroke-width:2;"/><line style="stroke:#000000;stroke-width:2;" x1="113.874" x2="382.9873" y1="752.0156" y2="752.0156"/><text fill="#000000" font-family="Verdana" font-size="26" font-weight="bold" lengthAdjust="spacing" textLength="18.4844" x="137.874" y="742.5566">8</text><text fill="#000000" font-family="Verdana" font-size="26" lengthAdjust="spacing" textLength="201.665" x="164.3584" y="742.5566">List of products</text></g><!--SRC=[RL9DZzCm4BtxLmn1gEm1bI9ngQ8Ssa9PgHLYjuXMwcKIpoRMEdQmdHK5zRyp-MYtsQrFy_5ctfidlma5bGILHcM4Y7quQ4g4fzyrcOmM2dE79VmJ0BcpTTL602jbQ5EexD6Gzp0vr-PMMmTtze1wfciwr- -RjJ3vs1Ogb5AP73vtQOakL-QKpJ1xN3AJaTskZKFZAtHa0lUF9ntV22MvNirNQqB7q9rnRSzhJTVgpQQk_gjGuQN-eVp9G7wR7SLHnEFUGo5yXZprIM0ThAdBb9mGgVq3qOROqsq4RxzhkSAC16Q1EQDvxOCjoKM07dvwnlFbGMMgGXCWMjjKQTgRvZOoiaNTatjI6Mq55u2NY-58tuOr-QB5Dy6bYXshM2k-sd4sdBqrJ-owTOUzwTTSCkw4n80fUe9eqKTjVp5xrjBS01-Iiyefk-a3eDPGEIlhB7ZH_QiL1lvm1xWr6Iln94uZpNWZUWfncYo_RE9nci0uOqPjSo6QrWN3xZhir6sGYzaKVjJa3c8n6qxUaQyrAxf4TzJpRa-3gAnXTIzejrSWhGljSODR6ajw6-p3imjYv5HU17YmDh1dUnEhP4c67FiYmHfuntRJ-qXAMFE37RyHO81HKKpB4X3XRtGJZrNo7m00]--></g></svg>